<svg xmlns="http://www.w3.org/2000/svg" version="1.1" xmlns:xlink="http://www.w3.org/1999/xlink" xmlns:svgjs="http://svgjs.dev/svgjs" width="1000" height="1000" viewBox="0 0 1000 1000"><rect width="1000" height="1000" fill="#ffffff"></rect><g transform="matrix(0.7,0,0,0.7,150.0000000000001,106.25)"><svg viewBox="0 0 320 360" data-background-color="#dedede" preserveAspectRatio="xMidYMid meet" height="1125" width="1000" xmlns="http://www.w3.org/2000/svg" xmlns:xlink="http://www.w3.org/1999/xlink"><defs></defs><g id="tight-bounds" transform="matrix(1,0,0,1,0,0)"><svg viewBox="0 0 320 360" height="360" width="320"><g><svg></svg></g><g><svg viewBox="0 0 320 360" height="360" width="320"><g><path d="M20.961 227.22l3.726 4.658-1.863-6.056c-0.466-2.795-3.726 0.466-1.863 1.398M25.153 224.425c1.397 2.329 2.795 4.658 2.795 6.987 0 3.261 2.795 4.658 5.123 5.589-3.261-3.726-5.124-13.974-7.918-12.576M204.017 26.929c7.918 0 15.371-0.932 23.756 0.931 20.495 5.124 37.729 15.371 49.374 29.811l32.606 52.169c1.397 13.042 4.192 27.482 3.726 43.319 3.261 0 2.795-4.658 6.521-5.59-3.726 9.316-5.59 20.961-6.521 34.469-2.329-7.453 0-18.632 0.466-24.687-3.261 5.124-5.124 1.397-5.124-0.932 0.466-3.726-1.397-3.261-2.795-4.658-5.124-4.658-8.384-9.782-12.11-17.7 2.329-6.055 2.795-14.905-4.658-19.563-2.329-1.397-5.124-3.726-6.521-7.453-1.863-5.124-5.124-11.179-4.193-19.097 0.466-2.329-6.987 5.124-11.179 1.863-18.166-12.576-36.332-27.016-58.224-39.127-11.645 0-20.029-4.192-24.221-9.316-3.726-4.658-0.932-10.713 4.658-11.179 3.261 0 6.987-0.932 9.782 0.932 0.466-1.863 2.329-4.192 4.657-4.192M157.904 16.215l0.932 0.466c4.658 0.932 6.987 7.453 12.11 5.124 0 3.261 0.466 6.521-0.466 8.85-1.397 3.726-5.59 3.726-8.85 3.726-31.208-1.863-49.374 11.179-68.471 22.358-5.124 3.261-10.713 5.59-14.906 9.782-20.029 18.632-41.921 35.866-47.045 70.335l-4.192 38.195c-0.466 4.192-5.124 8.384-4.192 13.508l3.26 22.824c-3.261-3.261-5.124 0.932-4.192 2.795 0.466 1.397 2.329 6.055 5.124 1.863 3.726 6.987 7.453 20.495 12.576 26.55 15.837 18.632 36.332 35.4 53.101 52.169 4.192-0.932 7.453-0.932 8.384-3.727 1.397 2.795-1.397 5.59-3.726 6.056 7.453 4.658 15.837 8.85 27.016 9.781 14.44 0.932 27.948 3.261 40.524 6.522 6.521-1.863 13.042-2.795 20.029-3.261 2.329 0 3.726-3.726 6.521-4.658l0.466-4.658c2.795 4.192 2.329-1.397 0.466-4.192 3.261 2.795 4.192 5.124 5.589 6.987 0-1.397 3.726-6.521 3.727-0.466l0.931-6.055c1.397-0.932 1.863 5.124 3.261 0.931 1.397-4.192 4.192-0.932 6.987-2.329-0.932 1.863-0.466 5.59 2.794 3.261l3.727-3.261c2.329 5.59 6.055 3.261 7.918 2.329 20.495-13.042 40.99-28.413 60.553-43.784l-0.466 6.055 2.329-7.453c2.329 2.329 4.192 0.466 5.124-0.931 2.795-4.658 6.521-9.316 12.577-13.508-7.453 20.029-16.303 35.866-27.482 48.908l-4.658 5.59c0 3.261-0.932 7.453-4.658 7.918-1.863 0.466-5.59-0.932-8.384 1.863-1.397 1.863 3.261 5.59-0.466 2.795-3.261-2.329-6.521 0-10.248 0.932-2.795 0.932 1.863 3.726 2.795 5.589 0.932 1.863 1.863 3.726 1.398 6.056l-5.124-5.59c-6.055 3.261-9.782 9.316-14.906 13.974-2.329 1.863-1.397 5.124-1.397 7.918-3.261 0-6.987-0.932-8.85 0.932-1.397 1.863-0.932 4.658-0.932 7.453-4.658-0.466-5.124-7.453-9.315-6.056-4.192 0.932-8.85 1.397-12.577 3.727 2.795 5.59-4.658 2.329-3.726 3.26-6.987-4.192-13.042-7.453-20.495-4.658-15.837-5.124-35.4-2.795-49.84-0.931 0-2.329 0.466-4.658-0.466-5.124-0.932 2.329-3.726 1.397-3.26 1.397-8.85-6.055-17.7-9.782-27.016-14.905-8.384 0.932-16.303-3.261-18.632-5.59-6.521-6.055-13.974-2.795-20.029-4.192-13.042-3.261-17.7-16.769-19.098-26.084-0.932-4.658-4.658-6.521-6.055-6.056-6.055-19.563-15.371-37.263-22.824-55.429-1.863-4.658-1.397-9.316-1.397-14.44 2.329 0.932 4.658 0.466 4.192-2.794-2.329-15.371-7.918-27.016-13.974-38.195 3.261-15.837 3.726-34.469 11.179-48.443 6.521-12.576 18.632-19.098 27.016-29.811 2.795-3.726 2.795-8.85 5.59-12.11 9.316-9.316 18.632-19.098 28.879-27.482 4.658-3.726 10.247 0 17.234-1.397 2.329-8.384 11.645-15.837 20.495-13.508 3.726 0.932 11.179-8.85 13.508-9.782 3.726-1.397 1.863 3.726 1.863 6.987 8.85-6.987 20.961-10.713 32.14-14.906" fill="#000000" data-fill-palette-color="tertiary"></path></g><g transform="matrix(1,0,0,1,64,107.23541756688773)"><svg viewBox="0 0 192 145.52916486622453" height="145.52916486622453" width="192"><g><svg viewBox="0 0 192 145.52916486622453" height="145.52916486622453" width="192"><g><svg viewBox="0 0 192 145.52916486622453" height="145.52916486622453" width="192"><g transform="matrix(1,0,0,1,0,87.96051768133111)"><svg viewBox="0 0 192 57.56864718489342" height="57.56864718489342" width="192"><g><svg viewBox="0 0 192 57.56864718489342" height="57.56864718489342" width="192"><g><svg viewBox="0 0 192 57.56864718489342" height="57.56864718489342" width="192"><g transform="matrix(1,0,0,1,0,0)"><svg width="192" viewBox="0.800000011920929 -32.102378845214844 107.88999938964844 32.352378845214844" height="57.56864718489342" data-palette-color="#000000"><path d="M26.4-0.75Q25.75-1.6 25.3-2.63 24.85-3.65 24.35-5.1L24.35-5.1Q24.25-5.35 23.78-6.6 23.3-7.85 22.7-8.75L22.7-8.75Q19.55-8.3 17.55-8.3L17.55-8.3Q16.45-8.3 15.13-8.38 13.8-8.45 13.15-8.45L13.15-8.45Q10.65-8.65 9.15-8.65L9.15-8.65Q8.55-7.85 8.13-6.95 7.7-6.05 7.05-4.25L7.05-4.25Q6.15-1.65 5.5-0.55L5.5-0.55Q5.05 0.2 3.75 0.2L3.75 0.2Q2.65 0.2 1.73-0.28 0.8-0.75 0.8-1.6L0.8-1.6Q1.2-3.5 2.08-5.63 2.95-7.75 4.6-11.3L4.6-11.3 6.6-16.2Q8.25-20.4 9.63-23.4 11-26.4 13.25-30.5L13.25-30.5Q13.55-31.1 14.25-31.53 14.95-31.95 15.8-31.95L15.8-31.95Q16.75-31.95 17.18-31.83 17.6-31.7 17.85-31.43 18.1-31.15 18.6-30.3L18.6-30.3Q20.3-27.65 21.53-24.85 22.75-22.05 24.65-17.1L24.65-17.1 25.7-14.45Q27.1-10.85 28.13-8.43 29.15-6 30.4-4L30.4-4Q31.2-2.7 31.2-2.2L31.2-2.2Q31.2-1 30.48-0.38 29.75 0.25 28.6 0.25L28.6 0.25Q27.15 0.25 26.4-0.75L26.4-0.75ZM21.25-12.85Q20.45-14.55 18.95-18.75L18.95-18.75Q17.4-23.25 15.85-25.9L15.85-25.9Q14.9-23.5 13.05-19.7L13.05-19.7Q11.8-17.35 10.2-12.9L10.2-12.9Q13.4-12.5 17.1-12.5L17.1-12.5Q19.75-12.5 21.25-12.85L21.25-12.85ZM42.05-2Q42.05-1.15 41.4-0.5 40.75 0.15 39.8 0.15L39.8 0.15Q38.3 0.15 37.6-0.43 36.9-1 36.9-2.55L36.9-2.55Q36.9-4.4 36.8-7.4L36.8-7.4Q36.7-9.9 36.7-11.6L36.7-11.6Q36.7-12.4 36.8-13.7L36.8-13.7Q36.9-14.9 36.9-15.5L36.9-15.5Q36.75-16.45 36.15-17.07 35.55-17.7 34.6-17.7L34.6-17.7Q34.15-17.7 33.85-18.13 33.55-18.55 33.55-19L33.55-19Q33.55-20.15 34.47-20.75 35.4-21.35 36.7-21.35L36.7-21.35Q39.4-21.35 40.45-18.15L40.45-18.15Q41.75-19.65 43.42-20.58 45.1-21.5 46.65-21.5L46.65-21.5Q48.5-21.5 50.02-20.5 51.55-19.5 51.55-17.8L51.55-17.8Q51.55-16.85 50.72-15.85 49.9-14.85 49.05-14.85L49.05-14.85Q48.6-14.85 48.27-15.08 47.95-15.3 47.5-15.75L47.5-15.75Q47-16.25 46.65-16.48 46.3-16.7 45.85-16.7L45.85-16.7Q45.05-16.7 44.35-16.45 43.65-16.2 43.4-15.85L43.4-15.85Q42.6-14.6 42.22-13.6 41.85-12.6 41.85-11.45L41.85-11.45Q41.85-10.6 41.8-10.1L41.8-10.1 41.75-7.25Q41.75-6.6 41.8-5.8 41.85-5 41.9-4.6L41.9-4.6Q42.05-3.25 42.05-2L42.05-2ZM57.05-32.1Q58.8-31.95 60.09-31.18 61.39-30.4 61.39-28.85L61.39-28.85Q61.39-27.7 60.32-27.03 59.24-26.35 57.74-26.35L57.74-26.35Q56.3-26.35 55.74-27.1 55.2-27.85 55.2-28.65L55.2-28.65Q55.2-30.15 55.52-31.15 55.84-32.15 57.05-32.1L57.05-32.1ZM61.05-18.95L61.05-9.95 61.05-8.5Q61.05-6.55 61.17-4.83 61.3-3.1 61.49-1.35L61.49-1.35Q61.45-0.85 60.74-0.33 60.05 0.2 59.49 0.2L59.49 0.2Q58.55 0.2 57.57-0.18 56.59-0.55 56.39-1.1L56.39-1.1Q56.09-2.7 56.09-3.95L56.09-3.95Q56.09-8.05 55.84-13.15L55.84-13.15Q55.64-17.65 55.64-19.45L55.64-19.45Q55.64-20.35 56.55-21 57.45-21.65 58.45-21.65L58.45-21.65Q59.89-21.65 60.47-21 61.05-20.35 61.05-18.95L61.05-18.95ZM66.89-10.6Q66.89-12.5 67.59-14.43 68.29-16.35 69.44-17.95L69.44-17.95Q70.59-19.55 73.09-20.58 75.59-21.6 77.54-21.6L77.54-21.6Q79.54-21.6 81.62-21.05 83.69-20.5 84.49-19.35L84.49-19.35Q86.34-16.75 86.34-14.25L86.34-14.25Q86.34-12.9 85.77-11.95 85.19-11 84.14-9.9L84.14-9.9Q83.29-9 81.47-8.7 79.64-8.4 77.84-8.4L77.84-8.4Q76.69-8.4 75.04-8.63 73.39-8.85 71.84-9.2L71.84-9.2Q71.94-8.2 72.34-7.25 72.74-6.3 73.29-5.8L73.29-5.8Q74.29-4.85 75.37-4.6 76.44-4.35 78.14-4.35L78.14-4.35Q79.94-4.35 81.49-4.95L81.49-4.95Q82.74-5.4 83.54-5.4L83.54-5.4Q84.49-5.4 84.99-4.83 85.49-4.25 85.49-3.35L85.49-3.35Q85.49-2.1 84.04-1.3 82.59-0.5 80.72-0.13 78.84 0.25 77.69 0.25L77.69 0.25Q75.34 0.25 73.14-0.6 70.94-1.45 69.49-3L69.49-3Q68.29-4.4 67.59-6.38 66.89-8.35 66.89-10.6L66.89-10.6ZM77.79-17.35Q76.69-17.35 75.59-16.93 74.49-16.5 73.79-15.75L73.79-15.75Q72.89-14.8 72.57-14.23 72.24-13.65 72.14-12.65L72.14-12.65Q73.39-12.25 77.34-12.25L77.34-12.25Q79.49-12.25 80.67-12.9 81.84-13.55 81.84-14.6L81.84-14.6Q81.84-15.65 80.54-16.5 79.24-17.35 77.79-17.35L77.79-17.35ZM105.14-11.25Q105.54-11 106.72-10.33 107.89-9.65 108.29-8.75 108.69-7.85 108.69-6.25L108.69-6.25Q108.69-4.45 107.64-3.08 106.59-1.7 104.94-0.95L104.94-0.95Q103.74-0.4 102.02-0.1 100.29 0.2 99.29 0.2L99.29 0.2Q98.29 0.2 96.72-0.1 95.14-0.4 94.54-0.65L94.54-0.65Q92.99-1.55 91.87-2.85 90.74-4.15 90.74-5.5L90.74-5.5Q90.74-6.5 91.39-7.08 92.04-7.65 93.09-7.65L93.09-7.65Q93.59-7.65 94.14-7.28 94.69-6.9 94.89-6.5L94.89-6.5Q95.44-5.2 96.74-4.55 98.04-3.9 99.39-3.9L99.39-3.9Q101.14-3.9 102.64-4.48 104.14-5.05 104.14-6.05L104.14-6.05Q104.14-6.5 103.92-6.78 103.69-7.05 103.29-7.35L103.29-7.35Q102.59-7.85 101.19-8.18 99.79-8.5 99.39-8.6L99.39-8.6Q97.34-9.05 95.39-9.95L95.39-9.95Q93.44-10.9 92.29-12.2 91.14-13.5 91.14-15.55L91.14-15.55Q91.14-16.9 92.14-18.38 93.14-19.85 94.39-20.45L94.39-20.45Q95.29-20.8 97.42-21.2 99.54-21.6 100.29-21.6L100.29-21.6Q101.44-21.6 102.79-21.38 104.14-21.15 104.84-20.65L104.84-20.65Q106.19-19.85 107.04-18.98 107.89-18.1 107.89-17L107.89-17Q107.89-16.45 107.64-15.83 107.39-15.2 107.04-15.05L107.04-15.05Q106.29-14.7 105.29-14.7L105.29-14.7Q104.84-14.7 104.57-14.95 104.29-15.2 103.84-15.75L103.84-15.75Q103.29-16.6 102.79-16.75L102.79-16.75Q102.19-16.9 101.04-17.13 99.89-17.35 99.49-17.35L99.49-17.35Q98.34-17.35 97.12-16.7 95.89-16.05 95.89-15.2L95.89-15.2Q95.89-14.75 96.27-14.5 96.64-14.25 97.07-14.05 97.49-13.85 97.64-13.8L97.64-13.8Q98.69-13.3 99.97-12.95 101.24-12.6 101.54-12.5L101.54-12.5Q104.24-11.85 105.14-11.25L105.14-11.25Z" opacity="1" transform="matrix(1,0,0,1,0,0)" fill="#000000" class="undefined-text-0" data-fill-palette-color="primary" id="text-0"></path></svg></g></svg></g></svg></g></svg></g><g transform="matrix(1,0,0,1,56.222143887861314,0)"><svg viewBox="0 0 79.55571222427737 79.55987040952272" height="79.55987040952272" width="79.55571222427737"><g><svg xmlns="http://www.w3.org/2000/svg" xmlns:xlink="http://www.w3.org/1999/xlink" version="1.1" x="0" y="0" viewBox="2.31500244140625 2.309000015258789 95.75499725341797 95.76000213623047" enable-background="new 0 0 100 100" xml:space="preserve" height="79.55987040952272" width="79.55571222427737" class="icon-icon-0" data-fill-palette-color="accent" id="icon-0"><path d="M50.193 2.309c-26.442 0-47.878 21.436-47.878 47.883 0 26.441 21.436 47.877 47.878 47.877 26.442 0 47.877-21.436 47.877-47.877C98.07 23.744 76.635 2.309 50.193 2.309zM74.036 76.971c-0.602 0-1.195-0.069-1.765-0.215-0.85-0.21-1.567-0.795-1.946-1.587-0.38-0.792-0.388-1.712-0.021-2.512 2.883-6.281 6.586-18.087 4.26-23.02-1.607-3.418-4.503-4.111-6.087-4.223-2.351-0.141-4.009 0.742-4.264 1.127-0.866 1.343-2.697 1.817-4.058 0.985-1.365-0.834-1.864-2.528-1.073-3.918 1.494-2.623 5.263-4.293 9.387-4.111 5.089 0.198 9.262 2.978 11.443 7.62 2.834 6.009 0.4 15.597-1.803 21.89 0.966-0.833 1.988-1.935 2.979-3.345 4.561-6.507 6.788-17.381-0.636-28.389-3.401-5.052-7.365-7.847-11.773-8.313-8.156-0.878-15.766 6.347-15.839 6.417-0.644 0.627-1.493 0.861-2.326 0.788-0.825 0.073-1.675-0.161-2.318-0.788-0.074-0.07-7.604-7.295-15.844-6.417-4.413 0.467-8.372 3.262-11.773 8.31-7.427 11.012-5.192 21.886-0.631 28.393 0.99 1.41 2.004 2.516 2.97 3.345-2.194-6.293-4.627-15.881-1.798-21.894 2.186-4.639 6.354-7.418 11.439-7.616 4.157-0.182 7.897 1.488 9.39 4.111 0.813 1.419 0.317 3.225-1.101 4.033s-3.225 0.313-4.033-1.106c-0.247-0.379-1.897-1.262-4.256-1.121-1.583 0.111-4.483 0.805-6.091 4.219-2.326 4.937 1.381 16.742 4.26 23.023 0.367 0.8 0.359 1.72-0.024 2.512-0.379 0.792-1.089 1.377-1.947 1.587-0.569 0.146-1.154 0.215-1.756 0.215-3.914 0-8.404-2.937-11.894-7.913-5.691-8.116-8.528-21.598 0.569-35.091 4.438-6.581 9.853-10.247 16.1-10.891 8.248-0.832 15.489 3.942 18.739 6.516 3.232-2.577 10.47-7.356 18.747-6.516 6.243 0.644 11.662 4.31 16.096 10.896 9.101 13.488 6.26 26.97 0.568 35.086C82.434 74.034 77.946 76.971 74.036 76.971z" fill="#000000" data-fill-palette-color="accent"></path></svg></g></svg></g><g></g></svg></g></svg></g></svg></g></svg></g></svg><rect width="320" height="360" fill="none" stroke="none" visibility="hidden"></rect></g></svg></g></svg>